<svg width="29" height="25" viewBox="0 0 29 25" fill="none" xmlns="http://www.w3.org/2000/svg">
<path d="M0.982079 20.9127C8.4685 20.9066 15.9224 21.898 23.1469 23.8606C24.167 24.1385 25.1857 23.3808 25.1857 22.3228V20.9127M3.08674 0.918457V1.97079C3.08674 2.24988 2.97587 2.51755 2.77852 2.7149C2.58117 2.91225 2.3135 3.02312 2.03441 3.02312H0.982079M0.982079 3.02312V2.49695C0.982079 1.62562 1.68924 0.918457 2.56057 0.918457H26.238M0.982079 3.02312V15.6511M26.238 0.918457V1.97079C26.238 2.55167 26.7094 3.02312 27.2903 3.02312H28.3426M26.238 0.918457H26.7641C27.6355 0.918457 28.3426 1.62562 28.3426 2.49695V16.1772C28.3426 17.0486 27.6355 17.7557 26.7641 17.7557H26.238M0.982079 15.6511V16.1772C0.982079 16.5959 1.14838 16.9974 1.44441 17.2934C1.74043 17.5894 2.14193 17.7557 2.56057 17.7557H3.08674M0.982079 15.6511H2.03441C2.3135 15.6511 2.58117 15.7619 2.77852 15.9593C2.97587 16.1566 3.08674 16.4243 3.08674 16.7034V17.7557M26.238 17.7557V16.7034C26.238 16.4243 26.3489 16.1566 26.5462 15.9593C26.7436 15.7619 27.0112 15.6511 27.2903 15.6511H28.3426M26.238 17.7557H3.08674M18.8717 9.33709C18.8717 10.4535 18.4282 11.5241 17.6388 12.3135C16.8494 13.1029 15.7787 13.5464 14.6624 13.5464C13.546 13.5464 12.4753 13.1029 11.6859 12.3135C10.8965 11.5241 10.453 10.4535 10.453 9.33709C10.453 8.22071 10.8965 7.15005 11.6859 6.36065C12.4753 5.57125 13.546 5.12777 14.6624 5.12777C15.7787 5.12777 16.8494 5.57125 17.6388 6.36065C18.4282 7.15005 18.8717 8.22071 18.8717 9.33709ZM23.081 9.33709H23.0922V9.34832H23.081V9.33709ZM6.24372 9.33709H6.25495V9.34832H6.24372V9.33709Z" stroke="white" stroke-width="0.75" stroke-linecap="round" stroke-linejoin="round"/>
</svg>
