<svg width="37" height="37" viewBox="0 0 37 37" fill="none" xmlns="http://www.w3.org/2000/svg">
<path d="M32.9532 9.02148C32.4825 9.0216 32.019 9.13353 31.603 9.34754C31.1869 9.56156 30.8308 9.87118 30.5657 10.2495C30.3005 10.6279 30.1343 11.0635 30.0815 11.5185C30.0287 11.9735 30.0909 12.4342 30.2627 12.8605L24.1801 18.7788C23.5021 18.5191 22.748 18.5191 22.07 18.7788L17.7218 14.548C17.8939 14.1216 17.9564 13.6607 17.9038 13.2054C17.8512 12.7502 17.6851 12.3143 17.4199 11.9357C17.1547 11.5571 16.7985 11.2473 16.3822 11.0332C15.9659 10.8191 15.5022 10.7071 15.0313 10.7071C14.5604 10.7071 14.0967 10.8191 13.6804 11.0332C13.2641 11.2473 12.9079 11.5571 12.6427 11.9357C12.3775 12.3143 12.2114 12.7502 12.1588 13.2054C12.1062 13.6607 12.1687 14.1216 12.3409 14.548L5.102 21.5913C4.48379 21.3553 3.80092 21.3336 3.16823 21.5299C2.53554 21.7262 1.9916 22.1285 1.62788 22.6691C1.26416 23.2097 1.10285 23.8557 1.17105 24.4984C1.23926 25.1411 1.53283 25.7414 2.00241 26.1982C2.47199 26.6551 3.08893 26.9408 3.74949 27.0071C4.41006 27.0735 5.07397 26.9165 5.62959 26.5626C6.18521 26.2088 6.59865 25.6795 6.8004 25.0639C7.00214 24.4483 6.97989 23.7839 6.73738 23.1824L13.9762 16.1392C14.6543 16.3989 15.4083 16.3989 16.0864 16.1392L20.4346 20.3699C20.2624 20.7963 20.1999 21.2572 20.2525 21.7125C20.3051 22.1678 20.4712 22.6037 20.7364 22.9823C21.0016 23.3609 21.3578 23.6707 21.7741 23.8848C22.1904 24.0989 22.6542 24.2108 23.1251 24.2108C23.5959 24.2108 24.0597 24.0989 24.476 23.8848C24.8923 23.6707 25.2485 23.3609 25.5137 22.9823C25.7789 22.6037 25.945 22.1678 25.9976 21.7125C26.0502 21.2572 25.9877 20.7963 25.8155 20.3699L31.8981 14.4517C32.2939 14.603 32.7192 14.6675 33.1435 14.6405C33.5679 14.6135 33.9809 14.4958 34.3531 14.2957C34.7253 14.0956 35.0476 13.818 35.2969 13.4828C35.5462 13.1476 35.7164 12.763 35.7954 12.3564C35.8744 11.9499 35.8602 11.5313 35.7539 11.1307C35.6475 10.7301 35.4517 10.3572 35.1802 10.0387C34.9088 9.72022 34.5684 9.46391 34.1835 9.28808C33.7985 9.11224 33.3784 9.02121 32.9532 9.02148Z" fill="white"/>
</svg>
