<svg width="35" height="35" viewBox="0 0 35 35" fill="none" xmlns="http://www.w3.org/2000/svg">
<path d="M3.67914 22.5988H0.728992C0.533385 22.5988 0.34579 22.6765 0.207475 22.8148C0.0691598 22.9531 -0.00854492 23.1407 -0.00854492 23.3363V33.6618C-0.00854492 33.8574 0.0691598 34.045 0.207475 34.1833C0.34579 34.3216 0.533385 34.3993 0.728992 34.3993H3.67914C5.24399 34.3993 6.74476 33.7777 7.85128 32.6712C8.9578 31.5647 9.57943 30.0639 9.57943 28.499C9.57943 26.9342 8.9578 25.4334 7.85128 24.3269C6.74476 23.2204 5.24399 22.5988 3.67914 22.5988ZM3.67914 32.9243H1.46653V24.0738H3.67914C4.85278 24.0738 5.97835 24.5401 6.80824 25.3699C7.63813 26.1998 8.10436 27.3254 8.10436 28.499C8.10436 29.6727 7.63813 30.7983 6.80824 31.6282C5.97835 32.458 4.85278 32.9243 3.67914 32.9243ZM34.4289 31.818C34.4989 31.885 34.5551 31.9652 34.5941 32.0539C34.6331 32.1427 34.6543 32.2383 34.6563 32.3352C34.6584 32.4321 34.6413 32.5285 34.6061 32.6188C34.5708 32.7091 34.5182 32.7916 34.451 32.8616C34.0055 33.3412 33.4669 33.725 32.868 33.9894C32.2691 34.2538 31.6226 34.3933 30.968 34.3993C28.1211 34.3993 25.8052 31.7516 25.8052 28.499C25.8052 25.2465 28.1211 22.5988 30.968 22.5988C31.6229 22.6053 32.2695 22.7453 32.8684 23.0104C33.4673 23.2754 34.0058 23.6599 34.451 24.1402C34.5181 24.2102 34.5707 24.2927 34.6059 24.383C34.6411 24.4733 34.6581 24.5697 34.6561 24.6666C34.654 24.7635 34.6329 24.8591 34.5939 24.9478C34.5549 25.0366 34.4989 25.1167 34.4289 25.1838C34.3589 25.2509 34.2764 25.3035 34.1861 25.3387C34.0958 25.3739 33.9994 25.391 33.9025 25.3889C33.8056 25.3868 33.71 25.3657 33.6213 25.3267C33.5325 25.2878 33.4523 25.2317 33.3853 25.1617C33.0777 24.8253 32.7046 24.5553 32.2889 24.3682C31.8733 24.1812 31.4238 24.081 30.968 24.0738C28.9398 24.0738 27.2803 26.0596 27.2803 28.499C27.2803 30.9384 28.9398 32.9243 30.968 32.9243C31.4238 32.9171 31.8733 32.8169 32.2889 32.6299C32.7046 32.4428 33.0777 32.1728 33.3853 31.8364C33.4525 31.7666 33.5329 31.7108 33.6218 31.672C33.7107 31.6333 33.8063 31.6125 33.9033 31.6108C34.0002 31.6091 34.0965 31.6265 34.1867 31.6621C34.2769 31.6976 34.3592 31.7506 34.4289 31.818ZM17.6923 22.5988C14.8454 22.5988 12.5296 25.2465 12.5296 28.499C12.5296 31.7516 14.8454 34.3993 17.6923 34.3993C20.5392 34.3993 22.8551 31.7516 22.8551 28.499C22.8551 25.2465 20.5392 22.5988 17.6923 22.5988ZM17.6923 32.9243C15.6641 32.9243 14.0047 30.9384 14.0047 28.499C14.0047 26.0596 15.6641 24.0738 17.6923 24.0738C19.7206 24.0738 21.38 26.0596 21.38 28.499C21.38 30.9384 19.7206 32.9243 17.6923 32.9243ZM2.9416 16.6985C3.13721 16.6985 3.3248 16.6208 3.46312 16.4824C3.60143 16.3441 3.67914 16.1565 3.67914 15.9609V2.68527C3.67914 2.48966 3.75684 2.30206 3.89516 2.16375C4.03347 2.02543 4.22107 1.94773 4.41668 1.94773H21.38V11.5357C21.38 11.7313 21.4577 11.9189 21.596 12.0572C21.7344 12.1955 21.9219 12.2732 22.1176 12.2732H31.7055V15.9609C31.7055 16.1565 31.7832 16.3441 31.9216 16.4824C32.0599 16.6208 32.2475 16.6985 32.4431 16.6985C32.6387 16.6985 32.8263 16.6208 32.9646 16.4824C33.1029 16.3441 33.1806 16.1565 33.1806 15.9609V11.5357C33.1807 11.4388 33.1617 11.3429 33.1247 11.2533C33.0876 11.1638 33.0333 11.0824 32.9649 11.0139L22.6394 0.688386C22.5708 0.619917 22.4895 0.565624 22.3999 0.528608C22.3104 0.491593 22.2144 0.47258 22.1176 0.472656H4.41668C3.82985 0.472656 3.26707 0.70577 2.85212 1.12071C2.43718 1.53566 2.20407 2.09845 2.20407 2.68527V15.9609C2.20407 16.1565 2.28177 16.3441 2.42008 16.4824C2.5584 16.6208 2.74599 16.6985 2.9416 16.6985ZM22.8551 2.9895L30.6619 10.7982H22.8551V2.9895Z" fill="white"/>
</svg>
