<svg width="38" height="38" viewBox="0 0 38 38" fill="none" xmlns="http://www.w3.org/2000/svg">
<path d="M30.4597 22.2102V18.1633C30.4597 16.7834 29.9115 15.4599 28.9358 14.4842C27.96 13.5084 26.6365 12.9602 25.2566 12.9602H22.9441C22.4841 12.9602 22.043 12.7775 21.7177 12.4522C21.3924 12.127 21.2097 11.6858 21.2097 11.2258V8.91333C21.2097 7.53338 20.6615 6.20994 19.6858 5.23417C18.71 4.25839 17.3865 3.71021 16.0066 3.71021H13.116M16.5847 3.71021H9.06909C8.11172 3.71021 7.33472 4.48721 7.33472 5.44458V32.0383C7.33472 32.9957 8.11172 33.7727 9.06909 33.7727H28.7253C29.6827 33.7727 30.4597 32.9957 30.4597 32.0383V17.5852C30.4597 13.9053 28.9979 10.3762 26.3958 7.7741C23.7938 5.17203 20.2646 3.71021 16.5847 3.71021Z" stroke="white" stroke-width="0.75" stroke-linecap="round" stroke-linejoin="round"/>
</svg>
