<svg width="46" height="46" viewBox="0 0 46 46" fill="none" xmlns="http://www.w3.org/2000/svg">
<path d="M13.3595 20.8479V11.5486C13.3595 5.96899 17.1746 2.24927 22.8972 2.24927C28.6199 2.24927 32.435 5.96899 32.435 11.5486V20.8479M22.8972 28.2874V35.7268M22.8972 43.1663C30.2718 43.1663 36.2501 37.3374 36.2501 30.1472C36.2501 22.957 30.2718 17.1282 22.8972 17.1282C15.5227 17.1282 9.54437 22.957 9.54437 30.1472C9.54437 37.3374 15.5227 43.1663 22.8972 43.1663ZM22.8972 30.1472C23.9507 30.1472 24.8048 29.3145 24.8048 28.2874C24.8048 27.2602 23.9507 26.4275 22.8972 26.4275C21.8437 26.4275 20.9897 27.2602 20.9897 28.2874C20.9897 29.3145 21.8437 30.1472 22.8972 30.1472Z" stroke="white"/>
</svg>
