<svg width="39" height="40" viewBox="0 0 39 40" fill="none" xmlns="http://www.w3.org/2000/svg">
<rect y="0.853516" width="38.2928" height="38.2928" rx="19.1464" fill="#161616"/>
<path d="M19.4989 14.7993C18.1192 14.7993 16.7961 15.3474 15.8205 16.3229C14.8449 17.2985 14.2969 18.6217 14.2969 20.0013C14.2969 21.381 14.8449 22.7041 15.8205 23.6797C16.7961 24.6552 18.1192 25.2033 19.4989 25.2033C20.8785 25.2033 22.2017 24.6552 23.1772 23.6797C24.1528 22.7041 24.7009 21.381 24.7009 20.0013C24.7009 18.6217 24.1528 17.2985 23.1772 16.3229C22.2017 15.3474 20.8785 14.7993 19.4989 14.7993ZM19.4989 23.3797C18.6026 23.3797 17.743 23.0236 17.1092 22.3899C16.4754 21.7561 16.1194 20.8965 16.1194 20.0002C16.1194 19.1039 16.4754 18.2443 17.1092 17.6105C17.743 16.9767 18.6026 16.6207 19.4989 16.6207C20.3952 16.6207 21.2548 16.9767 21.8885 17.6105C22.5223 18.2443 22.8784 19.1039 22.8784 20.0002C22.8784 20.8965 22.5223 21.7561 21.8885 22.3899C21.2548 23.0236 20.3952 23.3797 19.4989 23.3797Z" fill="#D2D2D2"/>
<path d="M24.9067 15.8205C25.5765 15.8205 26.1195 15.2776 26.1195 14.6078C26.1195 13.938 25.5765 13.395 24.9067 13.395C24.2369 13.395 23.694 13.938 23.694 14.6078C23.694 15.2776 24.2369 15.8205 24.9067 15.8205Z" fill="#D2D2D2"/>
<path d="M29.0996 13.3756C28.8391 12.7031 28.4411 12.0923 27.9311 11.5824C27.421 11.0725 26.8101 10.6748 26.1374 10.4146C25.3503 10.1191 24.5188 9.95936 23.6782 9.9421C22.5948 9.89485 22.2517 9.88135 19.5044 9.88135C16.7572 9.88135 16.4051 9.88135 15.3307 9.9421C14.4908 9.95847 13.6598 10.1183 12.8737 10.4146C12.2009 10.6745 11.5898 11.0721 11.0797 11.582C10.5696 12.092 10.1717 12.7029 9.91157 13.3756C9.61604 14.1627 9.45664 14.9943 9.4402 15.8348C9.39182 16.9171 9.3772 17.2602 9.3772 20.0086C9.3772 22.7558 9.3772 23.1057 9.4402 24.1823C9.45707 25.0238 9.6157 25.8541 9.91157 26.6427C10.1724 27.3152 10.5707 27.9259 11.0809 28.4357C11.5912 28.9456 12.2021 29.3434 12.8748 29.6037C13.6594 29.9111 14.4907 30.0823 15.3329 30.11C16.4163 30.1572 16.7594 30.1718 19.5067 30.1718C22.2539 30.1718 22.6061 30.1718 23.6804 30.11C24.5209 30.0929 25.3525 29.9335 26.1397 29.6386C26.8122 29.3778 27.4229 28.9797 27.9329 28.4697C28.4429 27.9597 28.841 27.3489 29.1018 26.6765C29.3977 25.889 29.5563 25.0587 29.5732 24.2172C29.6216 23.135 29.6362 22.7918 29.6362 20.0435C29.6362 17.2951 29.6362 16.9463 29.5732 15.8697C29.5601 15.0173 29.3999 14.1735 29.0996 13.3756ZM27.7293 24.0991C27.7221 24.7474 27.6037 25.3897 27.3794 25.9981C27.2105 26.4356 26.9519 26.8328 26.6202 27.1644C26.2884 27.4959 25.891 27.7543 25.4534 27.923C24.8518 28.1462 24.2164 28.2646 23.5747 28.2728C22.5059 28.3223 22.2044 28.3347 19.4639 28.3347C16.7212 28.3347 16.4411 28.3347 15.3521 28.2728C14.7107 28.265 14.0756 28.1466 13.4744 27.923C13.0353 27.7553 12.6363 27.4974 12.3032 27.1658C11.9701 26.8342 11.7103 26.4364 11.5406 25.9981C11.3194 25.3963 11.2012 24.7615 11.1907 24.1205C11.1423 23.0517 11.1311 22.7502 11.1311 20.0097C11.1311 17.2681 11.1311 16.988 11.1907 15.8978C11.198 15.2499 11.3163 14.6079 11.5406 14C11.8837 13.1123 12.5868 12.4137 13.4744 12.074C14.0759 11.8514 14.7109 11.7331 15.3521 11.7241C16.4219 11.6757 16.7223 11.6622 19.4639 11.6622C22.2056 11.6622 22.4868 11.6622 23.5747 11.7241C24.2164 11.7318 24.852 11.8502 25.4534 12.074C25.891 12.243 26.2884 12.5017 26.62 12.8334C26.9517 13.1651 27.2104 13.5624 27.3794 14C27.6006 14.6018 27.7188 15.2365 27.7293 15.8776C27.7777 16.9475 27.7901 17.2478 27.7901 19.9895C27.7901 22.73 27.7901 23.0247 27.7417 24.1002H27.7293V24.0991Z" fill="#D2D2D2"/>
</svg>
