<svg width="39" height="40" viewBox="0 0 39 40" fill="none" xmlns="http://www.w3.org/2000/svg">
<rect x="0.292847" y="0.853516" width="38.2928" height="38.2928" rx="19.1464" fill="#161616"/>
<path d="M12.62 15.3462C13.7906 15.3462 14.7396 14.3972 14.7396 13.2266C14.7396 12.0559 13.7906 11.1069 12.62 11.1069C11.4494 11.1069 10.5004 12.0559 10.5004 13.2266C10.5004 14.3972 11.4494 15.3462 12.62 15.3462Z" fill="#D2D2D2"/>
<path d="M16.7412 16.9532V28.7129H20.3924V22.8975C20.3924 21.363 20.6811 19.8769 22.5837 19.8769C24.4602 19.8769 24.4835 21.6313 24.4835 22.9943V28.7138H28.1366V22.2649C28.1366 19.0971 27.4546 16.6626 23.752 16.6626C21.9744 16.6626 20.7828 17.6381 20.2955 18.5613H20.2461V16.9532H16.7412ZM10.7911 16.9532H14.4482V28.7129H10.7911V16.9532Z" fill="#D2D2D2"/>
</svg>
