<svg width="505" height="240" viewBox="0 0 505 240" fill="none" xmlns="http://www.w3.org/2000/svg">
<path d="M290.085 74.2217H287.875C287.875 77.255 287.875 80.1583 287.875 82.9317C287.918 85.6617 287.962 88.37 288.005 91.0567H290.085C293.118 91.0567 295.458 90.3633 297.105 88.9767C298.795 87.59 299.64 85.51 299.64 82.7367C299.64 79.79 298.838 77.645 297.235 76.3017C295.675 74.915 293.292 74.2217 290.085 74.2217ZM290.28 55.8917H288.005C287.962 58.3183 287.918 60.7883 287.875 63.3017C287.875 65.7717 287.875 68.2633 287.875 70.7767H289.695C292.468 70.7767 294.505 70.1267 295.805 68.8267C297.105 67.4833 297.755 65.5333 297.755 62.9767C297.755 58.2533 295.263 55.8917 290.28 55.8917ZM272.145 55.6317V52.1217H293.14C296.823 52.1217 299.77 52.5767 301.98 53.4867C304.19 54.3533 305.793 55.545 306.79 57.0617C307.787 58.5783 308.285 60.29 308.285 62.1967C308.285 63.67 307.96 65.0567 307.31 66.3567C306.66 67.6133 305.533 68.74 303.93 69.7367C302.327 70.69 300.095 71.4267 297.235 71.9467C302.088 72.51 305.555 73.745 307.635 75.6517C309.758 77.515 310.82 79.92 310.82 82.8667C310.82 84.21 310.517 85.5967 309.91 87.0267C309.303 88.4133 308.263 89.6917 306.79 90.8617C305.317 92.0317 303.258 92.985 300.615 93.7217C298.015 94.4583 294.7 94.8267 290.67 94.8267H272.145V91.3167L277.02 90.7967C277.107 88.11 277.15 85.4017 277.15 82.6717C277.15 79.9417 277.15 77.19 277.15 74.4167V72.5317C277.15 69.845 277.15 67.1367 277.15 64.4067C277.15 61.6333 277.107 58.8817 277.02 56.1517L272.145 55.6317ZM330.723 65.7717C329.51 65.7717 328.383 66.53 327.343 68.0467C326.347 69.52 325.783 72.25 325.653 76.2367H331.178C332.738 76.2367 333.778 75.9333 334.298 75.3267C334.862 74.6767 335.143 73.615 335.143 72.1417C335.143 69.975 334.71 68.3717 333.843 67.3317C332.977 66.2917 331.937 65.7717 330.723 65.7717ZM330.853 95.8017C327.69 95.8017 324.895 95.1517 322.468 93.8517C320.042 92.5083 318.135 90.6017 316.748 88.1317C315.362 85.6183 314.668 82.6283 314.668 79.1617C314.668 75.5217 315.47 72.4667 317.073 69.9967C318.72 67.4833 320.822 65.5983 323.378 64.3417C325.935 63.0417 328.6 62.3917 331.373 62.3917C334.233 62.3917 336.66 62.9983 338.653 64.2117C340.69 65.425 342.228 67.0717 343.268 69.1517C344.308 71.1883 344.828 73.5283 344.828 76.1717C344.828 77.4283 344.698 78.5767 344.438 79.6167H325.653C325.87 83.04 326.802 85.575 328.448 87.2217C330.138 88.825 332.11 89.6267 334.363 89.6267C336.14 89.6267 337.657 89.3017 338.913 88.6517C340.17 87.9583 341.275 87.1133 342.228 86.1167L344.503 88.1967C343.16 90.7533 341.34 92.66 339.043 93.9167C336.747 95.1733 334.017 95.8017 330.853 95.8017ZM347.85 94.8267V92.2917L364.1 66.3567H355.26L353.505 73.5717L348.24 73.3117L348.76 63.4317H375.28V65.9017L359.55 91.8367H368.78L370.665 83.9717H375.93L375.28 94.8267H347.85ZM394.771 65.7717C393.558 65.7717 392.431 66.53 391.391 68.0467C390.394 69.52 389.831 72.25 389.701 76.2367H395.226C396.786 76.2367 397.826 75.9333 398.346 75.3267C398.909 74.6767 399.191 73.615 399.191 72.1417C399.191 69.975 398.758 68.3717 397.891 67.3317C397.024 66.2917 395.984 65.7717 394.771 65.7717ZM394.901 95.8017C391.738 95.8017 388.943 95.1517 386.516 93.8517C384.089 92.5083 382.183 90.6017 380.796 88.1317C379.409 85.6183 378.716 82.6283 378.716 79.1617C378.716 75.5217 379.518 72.4667 381.121 69.9967C382.768 67.4833 384.869 65.5983 387.426 64.3417C389.983 63.0417 392.648 62.3917 395.421 62.3917C398.281 62.3917 400.708 62.9983 402.701 64.2117C404.738 65.425 406.276 67.0717 407.316 69.1517C408.356 71.1883 408.876 73.5283 408.876 76.1717C408.876 77.4283 408.746 78.5767 408.486 79.6167H389.701C389.918 83.04 390.849 85.575 392.496 87.2217C394.186 88.825 396.158 89.6267 398.411 89.6267C400.188 89.6267 401.704 89.3017 402.961 88.6517C404.218 87.9583 405.323 87.1133 406.276 86.1167L408.551 88.1967C407.208 90.7533 405.388 92.66 403.091 93.9167C400.794 95.1733 398.064 95.8017 394.901 95.8017ZM412.483 94.8267V91.7717L416.058 91.0567C416.101 89.4533 416.123 87.7417 416.123 85.9217C416.123 84.1017 416.123 82.52 416.123 81.1767V77.3417C416.123 76.1283 416.101 75.1317 416.058 74.3517C416.058 73.5717 416.036 72.8567 415.993 72.2067C415.993 71.5133 415.971 70.7333 415.928 69.8667L411.963 69.2817V66.7467L424.768 62.3917L425.938 63.1067L426.523 70.7767C427.433 68.0033 428.711 65.9233 430.358 64.5367C432.004 63.1067 433.629 62.3917 435.233 62.3917C436.663 62.3917 437.898 62.8033 438.938 63.6267C439.978 64.4067 440.628 65.5983 440.888 67.2017C440.844 68.8917 440.389 70.2133 439.523 71.1667C438.656 72.0767 437.573 72.5317 436.273 72.5317C434.453 72.5317 432.784 71.5133 431.268 69.4767L430.878 68.9567C429.924 69.8667 429.036 71.015 428.213 72.4017C427.433 73.7883 426.869 75.24 426.523 76.7567V81.1767C426.523 82.52 426.523 84.0583 426.523 85.7917C426.523 87.525 426.544 89.15 426.588 90.6667L431.723 91.7717V94.8267H412.483ZM442.697 94.8267V91.7717L446.272 91.0567C446.316 89.4533 446.337 87.7417 446.337 85.9217C446.337 84.1017 446.337 82.52 446.337 81.1767V77.3417C446.337 76.1283 446.316 75.1317 446.272 74.3517C446.272 73.5717 446.251 72.8567 446.207 72.2067C446.207 71.5133 446.186 70.7333 446.142 69.8667L442.177 69.2817V66.7467L454.982 62.3917L456.152 63.1067L456.737 70.7767C457.647 68.0033 458.926 65.9233 460.572 64.5367C462.219 63.1067 463.844 62.3917 465.447 62.3917C466.877 62.3917 468.112 62.8033 469.152 63.6267C470.192 64.4067 470.842 65.5983 471.102 67.2017C471.059 68.8917 470.604 70.2133 469.737 71.1667C468.871 72.0767 467.787 72.5317 466.487 72.5317C464.667 72.5317 462.999 71.5133 461.482 69.4767L461.092 68.9567C460.139 69.8667 459.251 71.015 458.427 72.4017C457.647 73.7883 457.084 75.24 456.737 76.7567V81.1767C456.737 82.52 456.737 84.0583 456.737 85.7917C456.737 87.525 456.759 89.15 456.802 90.6667L461.937 91.7717V94.8267H442.697ZM496.545 95.7367C492.775 95.7367 490.392 94.1767 489.395 91.0567C488.009 92.53 486.665 93.7 485.365 94.5667C484.109 95.39 482.354 95.8017 480.1 95.8017C477.587 95.8017 475.529 95.0867 473.925 93.6567C472.365 92.2267 471.585 90.1683 471.585 87.4817C471.585 85.9217 471.932 84.5133 472.625 83.2567C473.319 82 474.575 80.83 476.395 79.7467C478.215 78.6633 480.794 77.645 484.13 76.6917C484.78 76.475 485.539 76.2583 486.405 76.0417C487.272 75.825 488.16 75.6083 489.07 75.3917V73.2467C489.07 70.3433 488.702 68.3717 487.965 67.3317C487.272 66.2917 485.885 65.7717 483.805 65.7717C483.502 65.7717 483.22 65.7717 482.96 65.7717C482.7 65.7717 482.397 65.7933 482.05 65.8367L481.725 68.6967C481.682 70.82 481.184 72.3583 480.23 73.3117C479.32 74.265 478.237 74.7417 476.98 74.7417C474.597 74.7417 473.145 73.6583 472.625 71.4917C472.799 68.805 474.164 66.6167 476.72 64.9267C479.277 63.2367 482.895 62.3917 487.575 62.3917C491.735 62.3917 494.704 63.345 496.48 65.2517C498.3 67.1583 499.21 70.3 499.21 74.6767V89.2367C499.21 90.4933 499.687 91.1217 500.64 91.1217C500.987 91.1217 501.312 91.035 501.615 90.8617C501.919 90.645 502.244 90.255 502.59 89.6917L504.345 90.8617C503.565 92.595 502.547 93.8517 501.29 94.6317C500.077 95.3683 498.495 95.7367 496.545 95.7367ZM481.205 85.7917C481.205 87.395 481.574 88.5867 482.31 89.3667C483.09 90.1467 484.022 90.5367 485.105 90.5367C485.582 90.5367 486.08 90.4283 486.6 90.2117C487.12 89.995 487.944 89.4967 489.07 88.7167V78.1867C488.507 78.36 487.944 78.555 487.38 78.7717C486.86 78.945 486.405 79.1183 486.015 79.2917C484.542 79.8983 483.372 80.765 482.505 81.8917C481.639 82.975 481.205 84.275 481.205 85.7917Z" fill="white"/>
<path d="M293.175 132.426H290.625C290.625 135.926 290.625 139.276 290.625 142.476C290.675 145.626 290.725 148.751 290.775 151.851H293.175C296.675 151.851 299.375 151.051 301.275 149.451C303.225 147.851 304.2 145.451 304.2 142.251C304.2 138.851 303.275 136.376 301.425 134.826C299.625 133.226 296.875 132.426 293.175 132.426ZM293.4 111.276H290.775C290.725 114.076 290.675 116.926 290.625 119.826C290.625 122.676 290.625 125.551 290.625 128.451H292.725C295.925 128.451 298.275 127.701 299.775 126.201C301.275 124.651 302.025 122.401 302.025 119.451C302.025 114.001 299.15 111.276 293.4 111.276ZM272.475 110.976V106.926H296.7C300.95 106.926 304.35 107.451 306.9 108.501C309.45 109.501 311.3 110.876 312.45 112.626C313.6 114.376 314.175 116.351 314.175 118.551C314.175 120.251 313.8 121.851 313.05 123.351C312.3 124.801 311 126.101 309.15 127.251C307.3 128.351 304.725 129.201 301.425 129.801C307.025 130.451 311.025 131.876 313.425 134.076C315.875 136.226 317.1 139.001 317.1 142.401C317.1 143.951 316.75 145.551 316.05 147.201C315.35 148.801 314.15 150.276 312.45 151.626C310.75 152.976 308.375 154.076 305.325 154.926C302.325 155.776 298.5 156.201 293.85 156.201H272.475V152.151L278.1 151.551C278.2 148.451 278.25 145.326 278.25 142.176C278.25 139.026 278.25 135.851 278.25 132.651V130.476C278.25 127.376 278.25 124.251 278.25 121.101C278.25 117.901 278.2 114.726 278.1 111.576L272.475 110.976ZM339.84 157.326C335.94 157.326 332.565 156.526 329.715 154.926C326.865 153.276 324.665 151.001 323.115 148.101C321.565 145.151 320.79 141.751 320.79 137.901C320.79 134.051 321.615 130.701 323.265 127.851C324.965 125.001 327.265 122.776 330.165 121.176C333.065 119.576 336.29 118.776 339.84 118.776C343.39 118.776 346.59 119.551 349.44 121.101C352.34 122.651 354.64 124.876 356.34 127.776C358.04 130.626 358.89 134.001 358.89 137.901C358.89 141.801 358.115 145.201 356.565 148.101C355.015 151.001 352.815 153.276 349.965 154.926C347.115 156.526 343.74 157.326 339.84 157.326ZM339.84 153.426C341.94 153.426 343.515 152.201 344.565 149.751C345.615 147.301 346.14 143.426 346.14 138.126C346.14 132.776 345.615 128.876 344.565 126.426C343.515 123.976 341.94 122.751 339.84 122.751C337.69 122.751 336.09 123.976 335.04 126.426C333.99 128.876 333.465 132.776 333.465 138.126C333.465 143.426 333.99 147.301 335.04 149.751C336.09 152.201 337.69 153.426 339.84 153.426ZM362.297 156.201V152.676L366.422 151.851C366.472 150.001 366.497 148.026 366.497 145.926C366.497 143.826 366.497 142.001 366.497 140.451V136.026C366.497 134.626 366.472 133.476 366.422 132.576C366.422 131.676 366.397 130.851 366.347 130.101C366.347 129.301 366.322 128.401 366.272 127.401L361.697 126.726V123.801L376.472 118.776L377.822 119.601L378.497 128.451C379.547 125.251 381.022 122.851 382.922 121.251C384.822 119.601 386.697 118.776 388.547 118.776C390.197 118.776 391.622 119.251 392.822 120.201C394.022 121.101 394.772 122.476 395.072 124.326C395.022 126.276 394.497 127.801 393.497 128.901C392.497 129.951 391.247 130.476 389.747 130.476C387.647 130.476 385.722 129.301 383.972 126.951L383.522 126.351C382.422 127.401 381.397 128.726 380.447 130.326C379.547 131.926 378.897 133.601 378.497 135.351V140.451C378.497 142.001 378.497 143.776 378.497 145.776C378.497 147.776 378.522 149.651 378.572 151.401L384.497 152.676V156.201H362.297ZM411.516 139.401C413.266 139.401 414.566 138.626 415.416 137.076C416.316 135.526 416.766 133.426 416.766 130.776C416.766 128.126 416.316 126.076 415.416 124.626C414.566 123.126 413.316 122.376 411.666 122.376C409.966 122.376 408.691 123.126 407.841 124.626C406.991 126.126 406.566 128.201 406.566 130.851C406.566 133.501 406.966 135.601 407.766 137.151C408.566 138.651 409.816 139.401 411.516 139.401ZM401.541 162.426C401.541 164.626 402.366 166.226 404.016 167.226C405.666 168.276 408.191 168.801 411.591 168.801C415.341 168.801 418.166 168.251 420.066 167.151C421.966 166.051 422.916 164.676 422.916 163.026C422.916 161.926 422.516 160.926 421.716 160.026C420.916 159.176 419.491 158.751 417.441 158.751H409.566C406.816 158.751 404.541 158.526 402.741 158.076C402.341 158.776 402.041 159.451 401.841 160.101C401.641 160.751 401.541 161.526 401.541 162.426ZM411.591 142.926C408.991 142.926 406.716 142.626 404.766 142.026C404.166 143.076 403.866 144.226 403.866 145.476C403.866 146.326 404.191 147.026 404.841 147.576C405.491 148.076 406.616 148.326 408.216 148.326H416.991C420.791 148.326 423.816 148.801 426.066 149.751C428.316 150.651 429.916 151.926 430.866 153.576C431.866 155.176 432.366 157.076 432.366 159.276C432.366 161.776 431.541 164.076 429.891 166.176C428.241 168.326 425.766 170.026 422.466 171.276C419.216 172.576 415.191 173.226 410.391 173.226C406.241 173.226 402.991 172.801 400.641 171.951C398.291 171.151 396.641 170.076 395.691 168.726C394.741 167.376 394.266 165.951 394.266 164.451C394.266 161.251 396.341 158.676 400.491 156.726C398.941 156.076 397.816 155.226 397.116 154.176C396.466 153.126 396.141 151.976 396.141 150.726C396.141 148.976 396.641 147.326 397.641 145.776C398.691 144.176 400.141 142.576 401.991 140.976C399.941 139.926 398.416 138.526 397.416 136.776C396.416 135.026 395.916 133.076 395.916 130.926C395.916 127.426 397.191 124.526 399.741 122.226C402.341 119.926 406.291 118.776 411.591 118.776C414.291 118.776 416.641 119.076 418.641 119.676C420.641 120.276 422.266 121.126 423.516 122.226L431.916 118.626L433.116 119.376V125.151H425.991C426.891 126.801 427.341 128.726 427.341 130.926C427.341 134.276 426.041 137.126 423.441 139.476C420.891 141.776 416.941 142.926 411.591 142.926ZM452.568 122.676C451.168 122.676 449.868 123.551 448.668 125.301C447.518 127.001 446.868 130.151 446.718 134.751H453.093C454.893 134.751 456.093 134.401 456.693 133.701C457.343 132.951 457.668 131.726 457.668 130.026C457.668 127.526 457.168 125.676 456.168 124.476C455.168 123.276 453.968 122.676 452.568 122.676ZM452.718 157.326C449.068 157.326 445.843 156.576 443.043 155.076C440.243 153.526 438.043 151.326 436.443 148.476C434.843 145.576 434.043 142.126 434.043 138.126C434.043 133.926 434.968 130.401 436.818 127.551C438.718 124.651 441.143 122.476 444.093 121.026C447.043 119.526 450.118 118.776 453.318 118.776C456.618 118.776 459.418 119.476 461.718 120.876C464.068 122.276 465.843 124.176 467.043 126.576C468.243 128.926 468.843 131.626 468.843 134.676C468.843 136.126 468.693 137.451 468.393 138.651H446.718C446.968 142.601 448.043 145.526 449.943 147.426C451.893 149.276 454.168 150.201 456.768 150.201C458.818 150.201 460.568 149.826 462.018 149.076C463.468 148.276 464.743 147.301 465.843 146.151L468.468 148.551C466.918 151.501 464.818 153.701 462.168 155.151C459.518 156.601 456.368 157.326 452.718 157.326ZM485.529 157.326C480.779 157.326 476.429 156.176 472.479 153.876L472.704 144.726H478.704L479.979 152.151C480.879 152.501 481.779 152.776 482.679 152.976C483.579 153.126 484.554 153.201 485.604 153.201C487.754 153.201 489.404 152.851 490.554 152.151C491.704 151.401 492.279 150.276 492.279 148.776C492.279 147.626 491.854 146.626 491.004 145.776C490.154 144.926 488.479 144.151 485.979 143.451L481.929 142.251C479.029 141.401 476.779 140.026 475.179 138.126C473.629 136.226 472.854 133.876 472.854 131.076C472.854 127.626 474.204 124.726 476.904 122.376C479.604 119.976 483.479 118.776 488.529 118.776C490.729 118.776 492.754 119.051 494.604 119.601C496.504 120.101 498.429 120.851 500.379 121.851L499.854 130.026H493.854L492.354 123.576C491.304 123.176 489.929 122.976 488.229 122.976C486.529 122.976 485.154 123.326 484.104 124.026C483.104 124.726 482.604 125.776 482.604 127.176C482.604 128.176 483.004 129.076 483.804 129.876C484.604 130.626 486.304 131.401 488.904 132.201L492.579 133.251C496.129 134.301 498.679 135.801 500.229 137.751C501.779 139.701 502.554 142.076 502.554 144.876C502.554 148.826 501.029 151.901 497.979 154.101C494.979 156.251 490.829 157.326 485.529 157.326Z" fill="white"/>
<path d="M277.69 194.34H273.363L272.851 195.537C272.682 195.929 272.598 196.257 272.598 196.521C272.598 196.781 272.682 196.997 272.851 197.17C273.019 197.339 273.473 197.446 274.211 197.492V197.827H270.144V197.492C270.586 197.423 270.952 197.23 271.244 196.911C271.536 196.592 271.88 195.988 272.276 195.099L276.651 185.337H276.822L281.231 195.373C281.601 196.211 281.906 196.767 282.147 197.041C282.389 197.309 282.719 197.46 283.139 197.492V197.827H277.219V197.492H277.465C278.262 197.492 278.661 197.287 278.661 196.876C278.661 196.712 278.554 196.377 278.34 195.872L277.69 194.34ZM277.383 193.677L275.558 189.459L273.685 193.677H277.383ZM297.59 197.827V197.492H297.993C298.294 197.492 298.545 197.446 298.745 197.355C298.95 197.259 299.096 197.129 299.183 196.965C299.269 196.801 299.312 196.391 299.312 195.735V187.682C299.312 187.194 299.294 186.855 299.258 186.664C299.226 186.468 299.101 186.297 298.882 186.151C298.668 186 298.371 185.925 297.993 185.925H297.59V185.59H303.065C305.376 185.59 307.094 186.144 308.22 187.251C309.35 188.354 309.915 189.851 309.915 191.743C309.915 193.716 309.311 195.224 308.104 196.268C306.9 197.307 305.221 197.827 303.065 197.827H297.59ZM302.252 186.288V195.831C302.252 196.332 302.307 196.678 302.416 196.87C302.53 197.061 302.815 197.157 303.271 197.157C305.526 197.157 306.654 195.377 306.654 191.818C306.654 190.446 306.479 189.346 306.128 188.516C305.782 187.687 305.342 187.106 304.809 186.773C304.28 186.44 303.428 186.278 302.252 186.288ZM337.847 185.59V185.925C337.377 186.003 336.997 186.219 336.705 186.575C336.413 186.926 336.019 187.653 335.522 188.755L331.312 198.107H331.011L326.144 186.8C325.834 186.281 325.396 185.989 324.831 185.925V185.59H330.696V185.925H330.498C329.637 185.925 329.206 186.124 329.206 186.52C329.206 186.698 329.393 187.222 329.767 188.092L332.378 194.183L334.791 188.755C335.215 187.803 335.427 187.174 335.427 186.869C335.427 186.24 334.894 185.925 333.827 185.925V185.59H337.847ZM359.168 185.419C360.494 185.419 361.627 185.661 362.565 186.144C363.504 186.627 364.268 187.349 364.855 188.311C365.448 189.273 365.744 190.389 365.744 191.661C365.744 193.438 365.163 194.958 364.001 196.22C362.843 197.478 361.271 198.107 359.284 198.107C357.115 198.107 355.483 197.448 354.39 196.131C353.3 194.814 352.756 193.329 352.756 191.674C352.756 190.59 352.991 189.585 353.46 188.66C353.929 187.735 354.643 186.964 355.6 186.349C356.561 185.729 357.751 185.419 359.168 185.419ZM359.277 185.994C357.099 185.994 356.01 187.915 356.01 191.756C356.01 195.539 357.092 197.43 359.257 197.43C361.412 197.43 362.49 195.562 362.49 191.825C362.49 187.937 361.419 185.994 359.277 185.994ZM393.163 185.31V189.624H392.828C392.45 188.507 391.867 187.627 391.078 186.985C390.29 186.338 389.387 186.014 388.371 186.014C386.954 186.014 385.94 186.566 385.329 187.668C384.723 188.771 384.42 190.139 384.42 191.77C384.42 195.543 385.737 197.43 388.371 197.43C388.945 197.43 389.565 197.307 390.23 197.061V194.518C390.23 193.525 389.809 193.028 388.966 193.028H388.651V192.693H394.599V193.028C394.015 193.064 393.63 193.183 393.443 193.383C393.257 193.584 393.163 193.962 393.163 194.518V197.061C391.586 197.763 389.896 198.114 388.091 198.114C386.715 198.114 385.509 197.843 384.475 197.3C383.445 196.753 382.636 196.017 382.048 195.092C381.46 194.167 381.166 193.094 381.166 191.873C381.166 190.597 381.462 189.473 382.055 188.502C382.652 187.527 383.458 186.75 384.475 186.171C385.491 185.593 386.662 185.303 387.988 185.303C388.895 185.303 389.864 185.49 390.894 185.864C391.495 186.083 391.853 186.192 391.967 186.192C392.336 186.192 392.623 185.898 392.828 185.31H393.163ZM416.487 194.34H412.16L411.647 195.537C411.479 195.929 411.395 196.257 411.395 196.521C411.395 196.781 411.479 196.997 411.647 197.17C411.816 197.339 412.27 197.446 413.008 197.492V197.827H408.94V197.492C409.382 197.423 409.749 197.23 410.041 196.911C410.333 196.592 410.677 195.988 411.073 195.099L415.448 185.337H415.619L420.028 195.373C420.397 196.211 420.703 196.767 420.944 197.041C421.186 197.309 421.516 197.46 421.936 197.492V197.827H416.016V197.492H416.262C417.059 197.492 417.458 197.287 417.458 196.876C417.458 196.712 417.351 196.377 417.137 195.872L416.487 194.34ZM416.18 193.677L414.354 189.459L412.481 193.677H416.18ZM436.387 197.827V197.492H436.79C437.091 197.492 437.341 197.446 437.542 197.355C437.747 197.259 437.893 197.129 437.979 196.965C438.066 196.801 438.109 196.391 438.109 195.735V187.682C438.109 187.194 438.091 186.855 438.055 186.664C438.023 186.468 437.897 186.297 437.679 186.151C437.465 186 437.168 185.925 436.79 185.925H436.387V185.59H441.862C444.173 185.59 445.891 186.144 447.017 187.251C448.147 188.354 448.712 189.851 448.712 191.743C448.712 193.716 448.108 195.224 446.9 196.268C445.697 197.307 444.018 197.827 441.862 197.827H436.387ZM441.049 186.288V195.831C441.049 196.332 441.104 196.678 441.213 196.87C441.327 197.061 441.612 197.157 442.067 197.157C444.323 197.157 445.451 195.377 445.451 191.818C445.451 190.446 445.276 189.346 444.925 188.516C444.578 187.687 444.139 187.106 443.605 186.773C443.077 186.44 442.225 186.278 441.049 186.288ZM470.621 185.419C471.947 185.419 473.08 185.661 474.019 186.144C474.957 186.627 475.721 187.349 476.309 188.311C476.901 189.273 477.197 190.389 477.197 191.661C477.197 193.438 476.616 194.958 475.454 196.22C474.297 197.478 472.724 198.107 470.737 198.107C468.568 198.107 466.937 197.448 465.843 196.131C464.754 194.814 464.209 193.329 464.209 191.674C464.209 190.59 464.444 189.585 464.913 188.66C465.382 187.735 466.096 186.964 467.053 186.349C468.014 185.729 469.204 185.419 470.621 185.419ZM470.73 185.994C468.552 185.994 467.463 187.915 467.463 191.756C467.463 195.539 468.545 197.43 470.71 197.43C472.866 197.43 473.943 195.562 473.943 191.825C473.943 187.937 472.872 185.994 470.73 185.994ZM500.549 185.31L500.645 189.391H500.275C500.111 188.434 499.701 187.627 499.045 186.971C498.389 186.315 497.632 185.987 496.775 185.987C496.279 185.987 495.821 186.126 495.401 186.404C494.987 186.677 494.779 187.081 494.779 187.614C494.779 188.051 494.968 188.445 495.347 188.796C495.725 189.143 496.532 189.621 497.767 190.232C499.284 190.975 500.269 191.665 500.72 192.303C501.175 192.941 501.403 193.629 501.403 194.368C501.403 195.452 500.989 196.348 500.159 197.054C499.334 197.761 498.339 198.114 497.172 198.114C496.484 198.114 495.691 197.927 494.793 197.553C494.51 197.435 494.271 197.375 494.075 197.375C493.679 197.375 493.373 197.619 493.159 198.107H492.824V193.486H493.159C493.401 194.662 493.877 195.623 494.588 196.371C495.299 197.113 496.146 197.485 497.131 197.485C497.691 197.485 498.2 197.325 498.655 197.006C499.111 196.687 499.339 196.236 499.339 195.653C499.339 195.174 499.154 194.75 498.785 194.381C498.421 194.008 497.742 193.577 496.748 193.089C495.335 192.392 494.328 191.734 493.727 191.114C493.13 190.494 492.831 189.733 492.831 188.831C492.831 187.828 493.193 186.992 493.918 186.322C494.647 185.647 495.545 185.31 496.611 185.31C497.14 185.31 497.746 185.451 498.43 185.734C499.113 186.012 499.521 186.151 499.653 186.151C499.95 186.151 500.157 185.871 500.275 185.31H500.549Z" fill="white"/>
<path d="M270 170.827H387" stroke="url(#paint0_linear_394_2)"/>
<path d="M439 170.827H503" stroke="url(#paint1_linear_394_2)"/>
<path d="M124 19.7666H166L163.658 21.8053H124V19.7666Z" fill="white"/>
<path d="M84.2658 2.15261H0.614861V6.52046H7.93529C13.05 6.60713 22.1593 10.0563 22.1593 19.416L22.5243 147.979C22.5243 156.303 13.9923 159.954 5.64852 159.954H0.671513L0.671527 165.212H74.0016L196.964 0.82666H189.305L75.5907 152.798H49.7095L49.7095 81.4865V13.0202C57.0774 13.0202 67.4418 12.9942 72.006 12.9942C82.4005 12.9942 88.2903 13.7232 93.3314 15.2261C119.68 23.0818 114.782 49.6921 114.782 49.6921C114.782 49.6921 114.357 74.5193 82.7919 74.5193V86.5717C99.7445 86.5717 108.206 93.9035 110.317 97.5693L120.191 85.4797L112.068 81.5294C138.94 73.8349 139.881 49.6921 139.881 49.6921C142.824 16.9582 109.353 2.15261 84.2658 2.15261Z" fill="white"/>
<path fill-rule="evenodd" clip-rule="evenodd" d="M0 19.8267H22.549V21.8267H1.94595V216.827H0V19.8267ZM214.054 184.327V20.8267H216V190.327L214.054 184.327Z" fill="white"/>
<path d="M119.001 216.371H73.0001L71.0001 218.367H119.001V216.371Z" fill="white"/>
<path d="M39 239.169H47.3438L163.864 83.9543C190.306 91.442 185.461 119.56 185.461 119.56C185.461 119.56 184.89 144.387 153.324 144.387V156.049C182.601 156.049 192.113 183.056 188.371 197.661C182.724 219.698 157.559 222.666 147.783 222.666H120.242L120.242 151.355L93.7153 186.448C93.7153 197.693 93.0569 217.847 93.0569 217.847C93.0569 226.171 84.5248 229.822 76.1811 229.822H71.2041V235.08H145.42C182.601 235.08 198.249 229.822 209.828 214.926C220.953 200.614 222.856 158.407 182.601 152.128V151.397C209.473 143.703 210.413 119.56 210.413 119.56C213.356 86.8263 183.772 73.995 163.864 72.8267L39 239.169Z" fill="white"/>
<path d="M216 19.8267H193L191.05 21.8267H216V19.8267Z" fill="white"/>
<path d="M0 216.827H46.2479L44.5 218.827H0V216.827Z" fill="white"/>
<defs>
<linearGradient id="paint0_linear_394_2" x1="266.5" y1="182.827" x2="402" y2="165.827" gradientUnits="userSpaceOnUse">
<stop/>
<stop offset="1" stop-color="white" stop-opacity="0.46"/>
</linearGradient>
<linearGradient id="paint1_linear_394_2" x1="437.085" y1="182.827" x2="512.019" y2="177.684" gradientUnits="userSpaceOnUse">
<stop stop-color="white" stop-opacity="0.46"/>
<stop offset="1"/>
</linearGradient>
</defs>
</svg>
