<svg width="34" height="33" viewBox="0 0 34 33" fill="none" xmlns="http://www.w3.org/2000/svg">
<path d="M28.241 8.76562H22.5691V8.25C22.5691 6.74573 21.9715 5.30306 20.9078 4.23938C19.8442 3.1757 18.4015 2.57813 16.8972 2.57812C15.3929 2.57813 13.9503 3.1757 12.8866 4.23938C11.8229 5.30306 11.2253 6.74573 11.2253 8.25V8.76562H5.55347C5.14321 8.76562 4.74976 8.9286 4.45966 9.21869C4.16957 9.50879 4.00659 9.90224 4.00659 10.3125V25.7812C4.00659 26.1915 4.16957 26.585 4.45966 26.8751C4.74976 27.1651 5.14321 27.3281 5.55347 27.3281H28.241C28.6512 27.3281 29.0447 27.1651 29.3348 26.8751C29.6249 26.585 29.7878 26.1915 29.7878 25.7812V10.3125C29.7878 9.90224 29.6249 9.50879 29.3348 9.21869C29.0447 8.9286 28.6512 8.76562 28.241 8.76562ZM12.2566 8.25C12.2566 7.01923 12.7455 5.83887 13.6158 4.96858C14.4861 4.0983 15.6664 3.60938 16.8972 3.60938C18.128 3.60938 19.3083 4.0983 20.1786 4.96858C21.0489 5.83887 21.5378 7.01923 21.5378 8.25V8.76562H12.2566V8.25ZM28.7566 25.7812C28.7566 25.918 28.7023 26.0492 28.6056 26.1459C28.5089 26.2425 28.3777 26.2969 28.241 26.2969H5.55347C5.41671 26.2969 5.28556 26.2425 5.18886 26.1459C5.09217 26.0492 5.03784 25.918 5.03784 25.7812V10.3125C5.03784 10.1757 5.09217 10.0446 5.18886 9.9479C5.28556 9.8512 5.41671 9.79688 5.55347 9.79688H28.241C28.3777 9.79688 28.5089 9.8512 28.6056 9.9479C28.7023 10.0446 28.7566 10.1757 28.7566 10.3125V25.7812Z" fill="white"/>
</svg>
