<svg width="29" height="30" viewBox="0 0 29 30" fill="none" xmlns="http://www.w3.org/2000/svg">
<path d="M26.7224 10.7415V17.9915C26.7224 18.1116 26.6763 18.2269 26.5942 18.3119C26.5122 18.3968 26.4009 18.4446 26.2849 18.4446H19.2849C19.1688 18.4446 19.0576 18.3968 18.9755 18.3119C18.8935 18.2269 18.8474 18.1116 18.8474 17.9915C18.8474 17.8713 18.8935 17.756 18.9755 17.671C19.0576 17.5861 19.1688 17.5383 19.2849 17.5383H25.2239L22.0258 14.2532C20.6189 12.7958 18.8265 11.8031 16.875 11.4006C14.9235 10.9982 12.9006 11.204 11.062 11.9921C9.2234 12.7802 7.65168 14.1151 6.54552 15.8282C5.43936 17.5413 4.84841 19.5556 4.84738 21.6165C4.84738 21.7366 4.80129 21.8519 4.71924 21.9369C4.63719 22.0218 4.52591 22.0696 4.40988 22.0696C4.29385 22.0696 4.18257 22.0218 4.10052 21.9369C4.01848 21.8519 3.97238 21.7366 3.97238 21.6165C3.97241 19.376 4.6139 17.1858 5.81573 15.323C7.01756 13.4601 8.72575 12.0082 10.7243 11.1508C12.7229 10.2934 14.922 10.0691 17.0436 10.5061C19.1653 10.9432 21.1142 12.0221 22.6438 13.6063L25.8474 16.9028V10.7415C25.8474 10.6213 25.8935 10.506 25.9755 10.421C26.0576 10.3361 26.1688 10.2883 26.2849 10.2883C26.4009 10.2883 26.5122 10.3361 26.5942 10.421C26.6763 10.506 26.7224 10.6213 26.7224 10.7415Z" fill="white"/>
</svg>
