<svg width="33" height="33" viewBox="0 0 33 33" fill="none" xmlns="http://www.w3.org/2000/svg">
<path d="M22.1719 27.8439C22.1719 27.9807 22.1176 28.1118 22.0209 28.2085C21.9242 28.3052 21.793 28.3595 21.6563 28.3595H3.09376C2.957 28.3595 2.82585 28.3052 2.72915 28.2085C2.63246 28.1118 2.57813 27.9807 2.57813 27.8439C2.57813 27.7072 2.63246 27.576 2.72915 27.4793C2.82585 27.3826 2.957 27.3283 3.09376 27.3283H21.6563C21.793 27.3283 21.9242 27.3826 22.0209 27.4793C22.1176 27.576 22.1719 27.7072 22.1719 27.8439ZM31.4441 11.9124C31.4307 11.9843 31.4022 12.0525 31.3604 12.1125C31.3186 12.1725 31.2645 12.2229 31.2018 12.2604L12.1997 23.6042C11.4879 24.0207 10.6783 24.2409 9.8536 24.2423C8.67631 24.2409 7.54411 23.7894 6.68895 22.9803L2.0277 18.4196C1.84305 18.244 1.70465 18.0254 1.6248 17.7834C1.54495 17.5414 1.52613 17.2834 1.57001 17.0324C1.61389 16.7814 1.71911 16.545 1.87632 16.3445C2.03353 16.1439 2.23785 15.9853 2.47114 15.8827L2.86688 15.6893C2.98753 15.6308 3.12625 15.6215 3.2536 15.6636L7.12079 16.9694L10.5059 14.9275L7.20715 11.7306C7.01611 11.5562 6.87186 11.3367 6.78761 11.0921C6.70336 10.8475 6.68179 10.5857 6.72488 10.3306C6.76797 10.0755 6.87434 9.83534 7.03426 9.632C7.19418 9.42867 7.40254 9.26868 7.64028 9.16669L7.6609 9.15896L8.58258 8.80962C8.69897 8.76614 8.82714 8.76614 8.94352 8.80962L16.1275 11.447L22.9866 7.34783C23.94 6.78076 25.0656 6.57578 26.1577 6.77034C27.2498 6.9649 28.2354 7.54601 28.9343 8.40744L31.3436 11.5012C31.3885 11.5587 31.4206 11.6251 31.438 11.696C31.4553 11.7669 31.4574 11.8406 31.4441 11.9124ZM30.1718 11.6739L28.1286 9.05454C27.5847 8.38796 26.8194 7.9389 25.9721 7.78914C25.1249 7.63938 24.252 7.79887 23.5125 8.23857L16.4459 12.4577C16.3797 12.4972 16.3056 12.5215 16.2288 12.5286C16.1521 12.5358 16.0747 12.5256 16.0024 12.4989L8.76563 9.83701L8.03602 10.1129C7.95814 10.1485 7.89037 10.203 7.83883 10.2714C7.78728 10.3398 7.75359 10.42 7.7408 10.5047C7.72801 10.5894 7.73651 10.6759 7.76555 10.7565C7.79459 10.8371 7.84324 10.9092 7.90711 10.9662C7.91151 10.9713 7.91625 10.976 7.92129 10.9804L11.7047 14.6529C11.7612 14.7079 11.8043 14.7751 11.8308 14.8493C11.8573 14.9235 11.8664 15.0028 11.8574 15.0811C11.8484 15.1594 11.8216 15.2346 11.7791 15.301C11.7365 15.3673 11.6793 15.423 11.6119 15.4638L7.45852 17.9749C7.39435 18.0138 7.32246 18.0382 7.24787 18.0464C7.17329 18.0546 7.0978 18.0465 7.02668 18.0226L3.12985 16.7077L2.91458 16.8134L2.89137 16.825C2.81275 16.8588 2.74377 16.9116 2.69065 16.9787C2.63754 17.0458 2.60196 17.1251 2.58712 17.2094C2.57229 17.2936 2.57866 17.3803 2.60567 17.4615C2.63268 17.5427 2.67948 17.6159 2.74184 17.6745L7.4018 22.2365C7.96665 22.7679 8.68853 23.1018 9.45919 23.1883C10.2299 23.2747 11.0078 23.109 11.6763 22.716L30.1718 11.6739Z" fill="white"/>
</svg>
